<svg width="138" height="133" viewBox="0 0 138 133" fill="none" xmlns="http://www.w3.org/2000/svg">
<path d="M45.4504 106.5C46.6303 106.54 47.8062 106.342 48.908 105.918C50.0098 105.494 51.015 104.852 51.8638 104.032C52.7125 103.211 53.3875 102.228 53.8485 101.141C54.3094 100.054 54.547 98.8856 54.547 97.705C54.547 96.5244 54.3094 95.3558 53.8485 94.269C53.3875 93.1821 52.7125 92.1991 51.8638 91.3784C51.015 90.5578 50.0098 89.9164 48.908 89.4923C47.8062 89.0682 46.6303 88.8702 45.4504 88.91C43.1165 88.91 40.8782 89.8371 39.2279 91.4874C37.5775 93.1378 36.6504 95.3761 36.6504 97.71C36.6504 100.044 37.5775 102.282 39.2279 103.933C40.8782 105.583 43.1165 106.51 45.4504 106.51V106.5ZM85.0204 95.51C87.3543 95.51 89.5926 94.5828 91.2429 92.9325C92.8932 91.2822 93.8204 89.0439 93.8204 86.71C93.8204 84.3761 92.8932 82.1378 91.2429 80.4874C89.5926 78.8371 87.3543 77.91 85.0204 77.91C82.6865 77.91 80.4482 78.8371 78.7978 80.4874C77.1475 82.1378 76.2204 84.3761 76.2204 86.71C76.2204 89.0439 77.1475 91.2822 78.7978 92.9325C80.4482 94.5828 82.6865 95.51 85.0204 95.51Z" fill="#30B797" stroke="#30B797" stroke-width="8" stroke-linecap="round" stroke-linejoin="round"/>
<path d="M54.25 97.6999V59.8899L93.82 50.5699V86.7299" stroke="#30B797" stroke-width="8" stroke-linecap="round" stroke-linejoin="round"/>
<path d="M4 119V14C4 11.3478 5.05357 8.80427 6.92893 6.9289C8.8043 5.05354 11.3478 3.99997 14 3.99997H50.9C53.1843 3.93342 55.4226 4.6513 57.2421 6.03411C59.0615 7.41691 60.3525 9.38121 60.9 11.6L64 24H124C126.652 24 129.196 25.0535 131.071 26.9289C132.946 28.8043 134 31.3478 134 34V119C134 121.652 132.946 124.196 131.071 126.071C129.196 127.946 126.652 129 124 129H14C11.3478 129 8.8043 127.946 6.92893 126.071C5.05357 124.196 4 121.652 4 119Z" stroke="#30B797" stroke-width="8" stroke-linecap="round" stroke-linejoin="round"/>
</svg>
