<svg width="124" height="123" viewBox="0 0 124 123" fill="none" xmlns="http://www.w3.org/2000/svg">
<path fill-rule="evenodd" clip-rule="evenodd" d="M109.791 2.04252C108.975 1.22696 107.936 0.671592 106.805 0.446615C105.673 0.221638 104.501 0.337155 103.435 0.778564C102.369 1.21997 101.458 1.96745 100.817 2.92651C100.176 3.88557 99.8339 5.01314 99.8337 6.16669V30.4917C96.3316 29.2535 92.5265 29.1618 88.9689 30.2297C85.4113 31.2977 82.2858 33.4699 80.0446 36.432C77.8035 39.3942 76.563 42.9926 76.5026 46.7066C76.4423 50.4205 77.5653 54.0573 79.709 57.0907C81.8527 60.1241 84.9061 62.3967 88.4271 63.5797C91.9481 64.7626 95.7542 64.7945 99.2946 63.6708C102.835 62.5471 105.926 60.326 108.12 57.329C110.315 54.3319 111.498 50.7145 111.5 47V20.2484L113.209 21.9575C113.748 22.5147 114.391 22.9591 115.103 23.2648C115.815 23.5705 116.58 23.7314 117.355 23.7381C118.129 23.7449 118.897 23.5973 119.614 23.304C120.331 23.0107 120.982 22.5775 121.53 22.0298C122.078 21.4821 122.511 20.8308 122.804 20.1139C123.098 19.397 123.245 18.6289 123.238 17.8543C123.232 17.0798 123.071 16.3143 122.765 15.6027C122.459 14.891 122.015 14.2473 121.458 13.7092L109.791 2.04252ZM59.0003 17.8334C50.2995 17.8354 41.7725 20.2699 34.3821 24.862C26.9917 29.454 21.0323 36.0208 17.1767 43.8207C13.3211 51.6206 11.7229 60.3431 12.5626 69.0034C13.4022 77.6636 16.6462 85.9167 21.9284 92.8307C27.2106 99.7447 34.3204 105.044 42.4553 108.131C50.5902 111.218 59.426 111.969 67.9652 110.3C76.5044 108.63 84.4068 104.607 90.7803 98.6836C97.1537 92.7605 101.744 85.1734 104.034 76.7792C104.227 76.0322 104.567 75.3311 105.034 74.7164C105.5 74.1018 106.084 73.5858 106.751 73.1983C107.419 72.8109 108.156 72.5597 108.922 72.4593C109.687 72.3589 110.464 72.4114 111.209 72.6136C111.953 72.8157 112.651 73.1637 113.26 73.6372C113.869 74.1107 114.379 74.7004 114.758 75.3722C115.138 76.0439 115.381 76.7843 115.472 77.5505C115.564 78.3167 115.503 79.0935 115.292 79.8359C108.566 104.61 85.9212 122.833 59.0003 122.833C26.7828 122.833 0.666992 96.7175 0.666992 64.5C0.666992 32.2825 26.7828 6.16669 59.0003 6.16669C66.5837 6.16669 73.8462 7.61918 80.5078 10.2617C81.9459 10.8326 83.0982 11.9513 83.7114 13.3718C84.3245 14.7923 84.3483 16.3982 83.7774 17.8363C83.2065 19.2743 82.0878 20.4266 80.6673 21.0398C79.2468 21.653 77.6409 21.6767 76.2028 21.1059C70.7265 18.9393 64.8896 17.8289 59.0003 17.8334ZM59.0003 58.6667C57.4532 58.6667 55.9695 59.2813 54.8755 60.3752C53.7816 61.4692 53.167 62.9529 53.167 64.5C53.167 66.0471 53.7816 67.5308 54.8755 68.6248C55.9695 69.7188 57.4532 70.3334 59.0003 70.3334C60.5474 70.3334 62.0312 69.7188 63.1251 68.6248C64.2191 67.5308 64.8337 66.0471 64.8337 64.5C64.8337 62.9529 64.2191 61.4692 63.1251 60.3752C62.0312 59.2813 60.5474 58.6667 59.0003 58.6667ZM41.5003 64.5C41.5003 59.8587 43.3441 55.4075 46.626 52.1257C49.9078 48.8438 54.359 47 59.0003 47C63.6416 47 68.0928 48.8438 71.3747 52.1257C74.6566 55.4075 76.5003 59.8587 76.5003 64.5C76.5003 69.1413 74.6566 73.5925 71.3747 76.8744C68.0928 80.1563 63.6416 82 59.0003 82C54.359 82 49.9078 80.1563 46.626 76.8744C43.3441 73.5925 41.5003 69.1413 41.5003 64.5Z" fill="#30B797"/>
</svg>
