<svg width="52" height="60" viewBox="0 0 52 60" fill="none" xmlns="http://www.w3.org/2000/svg">
<path d="M42.8333 57.6C39.5666 60.7667 36 60.2667 32.5666 58.7667C28.9333 57.2333 25.6 57.1667 21.7666 58.7667C16.9666 60.8333 14.4333 60.2333 11.5666 57.6C-4.70002 40.8333 -2.30002 15.3 16.1666 14.3667C20.6666 14.6 23.8 16.8333 26.4333 17.0333C30.3666 16.2333 34.1333 13.9333 38.3333 14.2333C43.3666 14.6333 47.1666 16.6333 49.6666 20.2333C39.2666 26.4667 41.7333 40.1667 51.2666 44C49.3666 49 46.9 53.9667 42.8 57.6333L42.8333 57.6ZM26.1 14.1667C25.6 6.73333 31.6333 0.6 38.5666 0C39.5333 8.6 30.7666 15 26.1 14.1667Z" fill="black"/>
</svg>
