<svg width="56" height="56" viewBox="0 0 56 56" fill="none" xmlns="http://www.w3.org/2000/svg">
<g clip-path="url(#clip0_53_252)">
<path d="M19.508 1.84187C13.9128 3.78292 9.08742 7.46709 5.74075 12.3533C2.39408 17.2394 0.702502 23.07 0.914475 28.9886C1.12645 34.9072 3.2308 40.6018 6.91844 45.236C10.6061 49.8703 15.6826 53.1998 21.4024 54.7356C26.0396 55.9322 30.898 55.9847 35.5599 54.8887C39.7832 53.9401 43.6877 51.911 46.8912 49C50.2253 45.8778 52.6453 41.9058 53.8912 37.5112C55.2453 32.7323 55.4863 27.7066 54.5955 22.82H28.5555V33.6219H43.6362C43.3348 35.3447 42.6889 36.989 41.7372 38.4564C40.7855 39.9238 39.5475 41.1841 38.0974 42.1619C36.2559 43.38 34.18 44.1996 32.003 44.5681C29.8197 44.9741 27.5802 44.9741 25.3968 44.5681C23.1839 44.1106 21.0905 43.1972 19.2499 41.8862C16.2931 39.7932 14.0729 36.8197 12.9062 33.39C11.7197 29.8961 11.7197 26.1083 12.9062 22.6144C13.7367 20.1653 15.1096 17.9355 16.9224 16.0912C18.997 13.942 21.6235 12.4057 24.5137 11.651C27.404 10.8962 30.4462 10.9521 33.3068 11.8125C35.5414 12.4985 37.5849 13.697 39.2743 15.3125C40.9747 13.6208 42.6722 11.9248 44.3668 10.2244C45.2418 9.30999 46.1955 8.43937 47.0574 7.50312C44.4786 5.10333 41.4516 3.23599 38.1499 2.00812C32.1374 -0.175053 25.5586 -0.233723 19.508 1.84187Z" fill="white"/>
<path d="M19.5081 1.84189C25.5582 -0.235114 32.137 -0.177987 38.15 2.00376C41.4523 3.23998 44.4779 5.1163 47.0531 7.52501C46.1781 8.46126 45.255 9.33626 44.3625 10.2463C42.665 11.9408 40.969 13.6296 39.2744 15.3125C37.585 13.697 35.5415 12.4985 33.3069 11.8125C30.4473 10.9491 27.4051 10.8899 24.5141 11.6416C21.6231 12.3933 18.995 13.9268 16.9181 16.0738C15.1053 17.918 13.7324 20.1478 12.9019 22.5969L3.83252 15.575C7.07881 9.13747 12.6995 4.21324 19.5081 1.84189Z" fill="#E33629"/>
<path d="M1.42628 22.5313C1.91374 20.1154 2.72304 17.7758 3.83253 15.575L12.9019 22.6144C11.7155 26.1083 11.7155 29.8961 12.9019 33.39C9.88023 35.7233 6.85711 38.0683 3.83253 40.425C1.05506 34.8964 0.207982 28.5972 1.42628 22.5313Z" fill="#F8BD00"/>
<path d="M28.5557 22.8156H54.5957C55.4864 27.7022 55.2454 32.7279 53.8913 37.5069C52.6454 41.9015 50.2254 45.8734 46.8913 48.9956C43.9644 46.7119 41.0244 44.4456 38.0975 42.1619C39.5486 41.1831 40.7871 39.9214 41.7389 38.4524C42.6906 36.9835 43.336 35.3375 43.6363 33.6131H28.5557C28.5513 30.0169 28.5557 26.4162 28.5557 22.8156Z" fill="#587DBD"/>
<path d="M3.82812 40.425C6.85271 38.0917 9.87583 35.7467 12.8975 33.39C14.0665 36.8209 16.2899 39.7946 19.25 41.8863C21.0963 43.1912 23.1942 44.0971 25.41 44.5463C27.5934 44.9522 29.8329 44.9522 32.0163 44.5463C34.1932 44.1778 36.2691 43.3581 38.1106 42.14C41.0375 44.4238 43.9775 46.69 46.9044 48.9738C43.7014 51.8863 39.7968 53.917 35.5731 54.8669C30.9112 55.9629 26.0528 55.9103 21.4156 54.7138C17.7481 53.7345 14.3223 52.0082 11.3531 49.6431C8.21039 47.148 5.64355 44.0036 3.82812 40.425Z" fill="#319F43"/>
</g>
<defs>
<clipPath id="clip0_53_252">
<rect width="56" height="56" fill="white"/>
</clipPath>
</defs>
</svg>
