<svg width="14" height="14" viewBox="0 0 14 14" fill="none" xmlns="http://www.w3.org/2000/svg">
<path fill-rule="evenodd" clip-rule="evenodd" d="M5.71636 0.636907C5.71648 0.504198 5.67518 0.374772 5.59825 0.266742C5.52131 0.158713 5.41259 0.0774849 5.2873 0.0344262C5.16201 -0.00863255 5.02642 -0.0113673 4.8995 0.0266046C4.77258 0.0645766 4.66069 0.141355 4.57948 0.246195L0.133574 5.97324C0.0468439 6.08494 -0.000244141 6.22243 -0.000244141 6.36395C-0.000244141 6.50547 0.0468439 6.64296 0.133574 6.75466L4.57948 12.4817C4.66069 12.5865 4.77258 12.6633 4.8995 12.7013C5.02642 12.7393 5.16201 12.7365 5.2873 12.6935C5.41259 12.6504 5.52131 12.5692 5.59825 12.4612C5.67518 12.3531 5.71648 12.2237 5.71636 12.091V9.552C9.13272 9.62327 10.7739 10.273 11.5983 10.9793C12.382 11.6506 12.5256 12.4403 12.6748 13.2676L12.7136 13.4808C12.7421 13.6333 12.8252 13.7701 12.9474 13.8655C13.0696 13.9609 13.2223 14.0083 13.3769 13.9988C13.5315 13.9893 13.6773 13.9234 13.7868 13.8137C13.8964 13.704 13.9622 13.558 13.9718 13.4031C14.0804 11.6545 13.9171 9.12057 12.6844 7.00092C11.4878 4.94364 9.33278 3.36171 5.71636 3.19626V0.636907Z" fill="#C4C4C4"/>
</svg>
