<svg width="200" height="62" viewBox="0 0 200 62" fill="none" xmlns="http://www.w3.org/2000/svg">
<path d="M0 12.208L4.032 3.96796L39.04 24.112L0 12.208Z" fill="#001B62"/>
<path d="M23.552 10.848L25.968 7.328L39.44 21.44L23.552 10.848Z" fill="#FABD00"/>
<path d="M200 46.4L196.72 57.52L160.208 35.488L200 46.4Z" fill="#001B62"/>
<path d="M176.752 50.88L174.672 55.76L160.08 38.96L176.752 50.88Z" fill="#FABD00"/>
<path d="M173.872 31.008H57.36L30.432 0H147.008L173.872 31.008Z" fill="#001B62"/>
<path d="M170.96 62.0001H66.24L39.312 31.0081H144.08L170.96 62.0001Z" fill="#FABD00"/>
<path d="M56.666 14.718C56.666 13.494 56.948 12.396 57.512 11.424C58.088 10.452 58.862 9.696 59.834 9.156C60.818 8.604 61.892 8.328 63.056 8.328C64.388 8.328 65.57 8.658 66.602 9.318C67.646 9.966 68.402 10.89 68.87 12.09H66.404C66.08 11.43 65.63 10.938 65.054 10.614C64.478 10.29 63.812 10.128 63.056 10.128C62.228 10.128 61.49 10.314 60.842 10.686C60.194 11.058 59.684 11.592 59.312 12.288C58.952 12.984 58.772 13.794 58.772 14.718C58.772 15.642 58.952 16.452 59.312 17.148C59.684 17.844 60.194 18.384 60.842 18.768C61.49 19.14 62.228 19.326 63.056 19.326C63.812 19.326 64.478 19.164 65.054 18.84C65.63 18.516 66.08 18.024 66.404 17.364H68.87C68.402 18.564 67.646 19.488 66.602 20.136C65.57 20.784 64.388 21.108 63.056 21.108C61.88 21.108 60.806 20.838 59.834 20.298C58.862 19.746 58.088 18.984 57.512 18.012C56.948 17.04 56.666 15.942 56.666 14.718ZM75.5739 21.162C74.6379 21.162 73.7919 20.952 73.0359 20.532C72.2799 20.1 71.6859 19.5 71.2539 18.732C70.8219 17.952 70.6059 17.052 70.6059 16.032C70.6059 15.024 70.8279 14.13 71.2719 13.35C71.7159 12.57 72.3219 11.97 73.0899 11.55C73.8579 11.13 74.7159 10.92 75.6639 10.92C76.6119 10.92 77.4699 11.13 78.2379 11.55C79.0059 11.97 79.6119 12.57 80.0559 13.35C80.4999 14.13 80.7219 15.024 80.7219 16.032C80.7219 17.04 80.4939 17.934 80.0379 18.714C79.5819 19.494 78.9579 20.1 78.1659 20.532C77.3859 20.952 76.5219 21.162 75.5739 21.162ZM75.5739 19.38C76.1019 19.38 76.5939 19.254 77.0499 19.002C77.5179 18.75 77.8959 18.372 78.1839 17.868C78.4719 17.364 78.6159 16.752 78.6159 16.032C78.6159 15.312 78.4779 14.706 78.2019 14.214C77.9259 13.71 77.5599 13.332 77.1039 13.08C76.6479 12.828 76.1559 12.702 75.6279 12.702C75.0999 12.702 74.6079 12.828 74.1519 13.08C73.7079 13.332 73.3539 13.71 73.0899 14.214C72.8259 14.706 72.6939 15.312 72.6939 16.032C72.6939 17.1 72.9639 17.928 73.5039 18.516C74.0559 19.092 74.7459 19.38 75.5739 19.38ZM94.7564 10.92C95.5364 10.92 96.2324 11.082 96.8444 11.406C97.4684 11.73 97.9544 12.21 98.3024 12.846C98.6624 13.482 98.8424 14.25 98.8424 15.15V21H96.8084V15.456C96.8084 14.568 96.5864 13.89 96.1424 13.422C95.6984 12.942 95.0924 12.702 94.3244 12.702C93.5564 12.702 92.9444 12.942 92.4884 13.422C92.0444 13.89 91.8224 14.568 91.8224 15.456V21H89.7884V15.456C89.7884 14.568 89.5664 13.89 89.1224 13.422C88.6784 12.942 88.0724 12.702 87.3044 12.702C86.5364 12.702 85.9244 12.942 85.4684 13.422C85.0244 13.89 84.8024 14.568 84.8024 15.456V21H82.7504V11.082H84.8024V12.216C85.1384 11.808 85.5644 11.49 86.0804 11.262C86.5964 11.034 87.1484 10.92 87.7364 10.92C88.5284 10.92 89.2364 11.088 89.8604 11.424C90.4844 11.76 90.9644 12.246 91.3004 12.882C91.6004 12.282 92.0684 11.808 92.7044 11.46C93.3404 11.1 94.0244 10.92 94.7564 10.92ZM113.46 10.92C114.24 10.92 114.936 11.082 115.548 11.406C116.172 11.73 116.658 12.21 117.006 12.846C117.366 13.482 117.546 14.25 117.546 15.15V21H115.512V15.456C115.512 14.568 115.29 13.89 114.846 13.422C114.402 12.942 113.796 12.702 113.028 12.702C112.26 12.702 111.648 12.942 111.192 13.422C110.748 13.89 110.526 14.568 110.526 15.456V21H108.492V15.456C108.492 14.568 108.27 13.89 107.826 13.422C107.382 12.942 106.776 12.702 106.008 12.702C105.24 12.702 104.628 12.942 104.172 13.422C103.728 13.89 103.506 14.568 103.506 15.456V21H101.454V11.082H103.506V12.216C103.842 11.808 104.268 11.49 104.784 11.262C105.3 11.034 105.852 10.92 106.44 10.92C107.232 10.92 107.94 11.088 108.564 11.424C109.188 11.76 109.668 12.246 110.004 12.882C110.304 12.282 110.772 11.808 111.408 11.46C112.044 11.1 112.728 10.92 113.46 10.92ZM121.201 9.768C120.829 9.768 120.517 9.642 120.265 9.39C120.013 9.138 119.887 8.826 119.887 8.454C119.887 8.082 120.013 7.77 120.265 7.518C120.517 7.266 120.829 7.14 121.201 7.14C121.561 7.14 121.867 7.266 122.119 7.518C122.371 7.77 122.497 8.082 122.497 8.454C122.497 8.826 122.371 9.138 122.119 9.39C121.867 9.642 121.561 9.768 121.201 9.768ZM122.209 11.082V21H120.157V11.082H122.209ZM129.907 10.92C130.687 10.92 131.383 11.082 131.995 11.406C132.619 11.73 133.105 12.21 133.453 12.846C133.801 13.482 133.975 14.25 133.975 15.15V21H131.941V15.456C131.941 14.568 131.719 13.89 131.275 13.422C130.831 12.942 130.225 12.702 129.457 12.702C128.689 12.702 128.077 12.942 127.621 13.422C127.177 13.89 126.955 14.568 126.955 15.456V21H124.903V11.082H126.955V12.216C127.291 11.808 127.717 11.49 128.233 11.262C128.761 11.034 129.319 10.92 129.907 10.92ZM140.588 10.92C141.356 10.92 142.034 11.076 142.622 11.388C143.222 11.688 143.69 12.066 144.026 12.522V11.082H146.096V21.162C146.096 22.074 145.904 22.884 145.52 23.592C145.136 24.312 144.578 24.876 143.846 25.284C143.126 25.692 142.262 25.896 141.254 25.896C139.91 25.896 138.794 25.578 137.906 24.942C137.018 24.318 136.514 23.466 136.394 22.386H138.428C138.584 22.902 138.914 23.316 139.418 23.628C139.934 23.952 140.546 24.114 141.254 24.114C142.082 24.114 142.748 23.862 143.252 23.358C143.768 22.854 144.026 22.122 144.026 21.162V19.506C143.678 19.974 143.204 20.37 142.604 20.694C142.016 21.006 141.344 21.162 140.588 21.162C139.724 21.162 138.932 20.946 138.212 20.514C137.504 20.07 136.94 19.458 136.52 18.678C136.112 17.886 135.908 16.992 135.908 15.996C135.908 15 136.112 14.118 136.52 13.35C136.94 12.582 137.504 11.988 138.212 11.568C138.932 11.136 139.724 10.92 140.588 10.92ZM144.026 16.032C144.026 15.348 143.882 14.754 143.594 14.25C143.318 13.746 142.952 13.362 142.496 13.098C142.04 12.834 141.548 12.702 141.02 12.702C140.492 12.702 140 12.834 139.544 13.098C139.088 13.35 138.716 13.728 138.428 14.232C138.152 14.724 138.014 15.312 138.014 15.996C138.014 16.68 138.152 17.28 138.428 17.796C138.716 18.312 139.088 18.708 139.544 18.984C140.012 19.248 140.504 19.38 141.02 19.38C141.548 19.38 142.04 19.248 142.496 18.984C142.952 18.72 143.318 18.336 143.594 17.832C143.882 17.316 144.026 16.716 144.026 16.032Z" fill="white"/>
<path d="M87.472 53.126C86.632 53.126 85.876 52.982 85.204 52.694C84.532 52.394 84.004 51.974 83.62 51.434C83.236 50.894 83.044 50.264 83.044 49.544H85.24C85.288 50.084 85.498 50.528 85.87 50.876C86.254 51.224 86.788 51.398 87.472 51.398C88.18 51.398 88.732 51.23 89.128 50.894C89.524 50.546 89.722 50.102 89.722 49.562C89.722 49.142 89.596 48.8 89.344 48.536C89.104 48.272 88.798 48.068 88.426 47.924C88.066 47.78 87.562 47.624 86.914 47.456C86.098 47.24 85.432 47.024 84.916 46.808C84.412 46.58 83.98 46.232 83.62 45.764C83.26 45.296 83.08 44.672 83.08 43.892C83.08 43.172 83.26 42.542 83.62 42.002C83.98 41.462 84.484 41.048 85.132 40.76C85.78 40.472 86.53 40.328 87.382 40.328C88.594 40.328 89.584 40.634 90.352 41.246C91.132 41.846 91.564 42.674 91.648 43.73H89.38C89.344 43.274 89.128 42.884 88.732 42.56C88.336 42.236 87.814 42.074 87.166 42.074C86.578 42.074 86.098 42.224 85.726 42.524C85.354 42.824 85.168 43.256 85.168 43.82C85.168 44.204 85.282 44.522 85.51 44.774C85.75 45.014 86.05 45.206 86.41 45.35C86.77 45.494 87.262 45.65 87.886 45.818C88.714 46.046 89.386 46.274 89.902 46.502C90.43 46.73 90.874 47.084 91.234 47.564C91.606 48.032 91.792 48.662 91.792 49.454C91.792 50.09 91.618 50.69 91.27 51.254C90.934 51.818 90.436 52.274 89.776 52.622C89.128 52.958 88.36 53.126 87.472 53.126ZM98.5153 53.162C97.5793 53.162 96.7333 52.952 95.9773 52.532C95.2213 52.1 94.6273 51.5 94.1953 50.732C93.7633 49.952 93.5473 49.052 93.5473 48.032C93.5473 47.024 93.7693 46.13 94.2133 45.35C94.6573 44.57 95.2633 43.97 96.0313 43.55C96.7993 43.13 97.6573 42.92 98.6053 42.92C99.5533 42.92 100.411 43.13 101.179 43.55C101.947 43.97 102.553 44.57 102.997 45.35C103.441 46.13 103.663 47.024 103.663 48.032C103.663 49.04 103.435 49.934 102.979 50.714C102.523 51.494 101.899 52.1 101.107 52.532C100.327 52.952 99.4633 53.162 98.5153 53.162ZM98.5153 51.38C99.0433 51.38 99.5353 51.254 99.9913 51.002C100.459 50.75 100.837 50.372 101.125 49.868C101.413 49.364 101.557 48.752 101.557 48.032C101.557 47.312 101.419 46.706 101.143 46.214C100.867 45.71 100.501 45.332 100.045 45.08C99.5893 44.828 99.0973 44.702 98.5693 44.702C98.0413 44.702 97.5493 44.828 97.0933 45.08C96.6493 45.332 96.2953 45.71 96.0313 46.214C95.7673 46.706 95.6353 47.312 95.6353 48.032C95.6353 49.1 95.9053 49.928 96.4453 50.516C96.9973 51.092 97.6873 51.38 98.5153 51.38ZM109.994 53.162C109.058 53.162 108.212 52.952 107.456 52.532C106.7 52.1 106.106 51.5 105.674 50.732C105.242 49.952 105.026 49.052 105.026 48.032C105.026 47.024 105.248 46.13 105.692 45.35C106.136 44.57 106.742 43.97 107.51 43.55C108.278 43.13 109.136 42.92 110.084 42.92C111.032 42.92 111.89 43.13 112.658 43.55C113.426 43.97 114.032 44.57 114.476 45.35C114.92 46.13 115.142 47.024 115.142 48.032C115.142 49.04 114.914 49.934 114.458 50.714C114.002 51.494 113.378 52.1 112.586 52.532C111.806 52.952 110.942 53.162 109.994 53.162ZM109.994 51.38C110.522 51.38 111.014 51.254 111.47 51.002C111.938 50.75 112.316 50.372 112.604 49.868C112.892 49.364 113.036 48.752 113.036 48.032C113.036 47.312 112.898 46.706 112.622 46.214C112.346 45.71 111.98 45.332 111.524 45.08C111.068 44.828 110.576 44.702 110.048 44.702C109.52 44.702 109.028 44.828 108.572 45.08C108.128 45.332 107.774 45.71 107.51 46.214C107.246 46.706 107.114 47.312 107.114 48.032C107.114 49.1 107.384 49.928 107.924 50.516C108.476 51.092 109.166 51.38 109.994 51.38ZM122.174 42.92C122.954 42.92 123.65 43.082 124.262 43.406C124.886 43.73 125.372 44.21 125.72 44.846C126.068 45.482 126.242 46.25 126.242 47.15V53H124.208V47.456C124.208 46.568 123.986 45.89 123.542 45.422C123.098 44.942 122.492 44.702 121.724 44.702C120.956 44.702 120.344 44.942 119.888 45.422C119.444 45.89 119.222 46.568 119.222 47.456V53H117.17V43.082H119.222V44.216C119.558 43.808 119.984 43.49 120.5 43.262C121.028 43.034 121.586 42.92 122.174 42.92Z" fill="#001B62"/>
</svg>
