<svg width="85" height="86" viewBox="0 0 85 86" fill="none" xmlns="http://www.w3.org/2000/svg">
<path d="M42.5 56.8583C40.5521 56.8583 38.8851 56.1653 37.4992 54.7793C36.1132 53.3933 35.419 51.7252 35.4167 49.7749C35.4143 47.8246 36.1085 46.1577 37.4992 44.7741C38.8899 43.3905 40.5568 42.6963 42.5 42.6916C44.4432 42.6869 46.1113 43.381 47.5044 44.7741C48.8974 46.1671 49.5904 47.8341 49.5833 49.7749C49.5763 51.7158 48.8833 53.3839 47.5044 54.7793C46.1255 56.1747 44.4574 56.8677 42.5 56.8583ZM26.1198 24.9833H58.8802L65.9635 10.8166H19.0365L26.1198 24.9833ZM29.75 74.5666H55.25C60.5625 74.5666 65.0781 72.7226 68.7969 69.0345C72.5156 65.3465 74.375 60.8155 74.375 55.4416C74.375 53.1985 73.9913 51.0145 73.224 48.8895C72.4566 46.7645 71.3646 44.8461 69.9479 43.1343L60.7396 32.0666H24.2604L15.0521 43.1343C13.6354 44.8461 12.5434 46.7645 11.776 48.8895C11.0087 51.0145 10.625 53.1985 10.625 55.4416C10.625 60.8131 12.4702 65.3441 16.1606 69.0345C19.851 72.7249 24.3808 74.569 29.75 74.5666Z" fill="url(#paint0_linear_30_69)"/>
<defs>
<linearGradient id="paint0_linear_30_69" x1="70.3823" y1="13.0525" x2="41.2681" y2="84.6052" gradientUnits="userSpaceOnUse">
<stop stop-color="#29A49F"/>
<stop offset="1" stop-color="#6017DC"/>
</linearGradient>
</defs>
</svg>
