<svg width="85" height="86" viewBox="0 0 85 86" fill="none" xmlns="http://www.w3.org/2000/svg">
<g clip-path="url(#clip0_30_60)">
<path d="M74.7429 27.6346C74.7429 30.2039 73.7223 32.6679 71.9056 34.4846C70.0888 36.3014 67.6248 37.322 65.0556 37.322C62.4863 37.322 60.0223 36.3014 58.2056 34.4846C56.3889 32.6679 55.3682 30.2039 55.3682 27.6346C55.3682 25.0654 56.3889 22.6014 58.2056 20.7847C60.0223 18.9679 62.4863 17.9473 65.0556 17.9473C67.6248 17.9473 70.0888 18.9679 71.9056 20.7847C73.7223 22.6014 74.7429 25.0654 74.7429 27.6346ZM4.37221 8.50698V26.0767H1.74518C1.62677 26.0771 1.50945 26.0541 1.39997 26.0089C1.29049 25.9638 1.191 25.8975 1.1072 25.8139C1.02341 25.7302 0.956973 25.6308 0.911699 25.5214C0.866425 25.412 0.843209 25.2947 0.843385 25.1763V2.50519C0.843385 1.73753 1.41581 1.11331 2.20073 1.11331H13.8178C14.6014 1.11331 15.1752 1.7362 15.1752 2.50253V3.83331H33.1354C33.6374 3.83331 34.0385 4.23573 34.0385 4.73112V9.82847H18.7067V8.4937C18.7067 7.72737 18.1329 7.10448 17.3467 7.10448H5.73354C4.94729 7.10448 4.37221 7.738 4.37221 8.50698Z" fill="url(#paint0_linear_30_60)"/>
<path d="M41.1002 36.715C41.1002 36.8334 41.0768 36.9506 41.0313 37.0598C40.9859 37.1691 40.9193 37.2683 40.8354 37.3518C40.7514 37.4352 40.6518 37.5012 40.5423 37.546C40.4327 37.5908 40.3154 37.6135 40.1971 37.6128H8.80683C8.68848 37.6134 8.57119 37.5905 8.46172 37.5455C8.35224 37.5005 8.25274 37.4344 8.16893 37.3508C8.08512 37.2673 8.01866 37.1679 7.97337 37.0586C7.92808 36.9493 7.90485 36.832 7.90503 36.7137V14.0426C7.90503 13.2749 8.47745 12.6507 9.26237 12.6507H20.8768C21.6631 12.6507 22.2368 13.2736 22.2368 14.0399V15.3707H40.1971C40.6978 15.3707 41.1002 15.7731 41.1002 16.2685V36.715ZM27.1761 23.807V18.4599H21.8264V23.807H16.4781V29.1567H21.8264V34.505H27.1761V29.1567H32.5245V23.807H27.1761ZM74.6274 39.8175C75.9031 39.8163 77.1666 40.0665 78.3456 40.5539C79.5245 41.0412 80.5959 41.7562 81.4984 42.6578C82.4009 43.5595 83.1169 44.6301 83.6054 45.8086C84.0938 46.9872 84.3453 48.2504 84.3453 49.5261L84.3652 85.0309H51.7677V55.5983H50.4475L44.4364 64.5671C43.4576 65.9019 41.4707 66.5487 39.8863 66.5487H25.7736C24.6482 66.549 23.5687 66.1026 22.7723 65.3074C21.9758 64.5122 21.5277 63.4334 21.5263 62.308C21.5263 59.9705 23.4295 58.1244 25.7736 58.1244H38.61L47.515 44.6599C49.648 41.4033 53.821 39.8295 57.1798 39.8295L74.6261 39.8189L74.6274 39.8175Z" fill="url(#paint1_linear_30_60)"/>
</g>
<defs>
<linearGradient id="paint0_linear_30_60" x1="70.1146" y1="2.38327" x2="61.0319" y2="47.9414" gradientUnits="userSpaceOnUse">
<stop stop-color="#29A49F"/>
<stop offset="1" stop-color="#6017DC"/>
</linearGradient>
<linearGradient id="paint1_linear_30_60" x1="79.5764" y1="15.1893" x2="47.8162" y2="97.6451" gradientUnits="userSpaceOnUse">
<stop stop-color="#29A49F"/>
<stop offset="1" stop-color="#6017DC"/>
</linearGradient>
<clipPath id="clip0_30_60">
<rect width="85" height="85" fill="white" transform="translate(0 0.191589)"/>
</clipPath>
</defs>
</svg>
