<svg width="85" height="58" viewBox="0 0 85 58" fill="none" xmlns="http://www.w3.org/2000/svg">
<path d="M85 0.368881H70.7802C58.5615 0.368881 52.0094 1.06659 46.881 7.29992C42.3693 3.3882 36.7365 1.00276 30.7876 0.484513C24.8387 -0.0337318 18.8783 1.34174 13.758 4.41436C8.63781 7.48698 4.61988 12.0995 2.27846 17.5927C-0.0629696 23.0859 -0.608055 29.1787 0.721097 35.0003C2.05025 40.8219 5.18561 46.0744 9.67911 50.0071C14.1726 53.9398 19.7942 56.3514 25.7406 56.8974C31.687 57.4433 37.6538 56.0957 42.7883 53.0469C47.9228 49.9982 51.9622 45.4045 54.3292 39.9222C65.5987 39.1041 73.4187 32.3643 75.8802 21.6012C75.8802 21.6012 67.3838 23.673 60.1906 21.6012C74.421 18.8493 82.62 10.8451 85 0.368881ZM19.8687 28.688C19.8631 27.1696 20.2659 25.6776 21.0349 24.3683C21.8038 23.0589 22.9107 21.9804 24.2396 21.2458C25.5685 20.5111 27.0705 20.1472 28.5882 20.1923C30.106 20.2374 31.5837 20.6897 32.8667 21.502C33.2436 18.9731 34.5301 16.6684 36.4848 15.0202C38.4395 13.3719 40.9283 12.4931 43.4846 12.5487H43.5129C40.2546 18.8458 38.5298 24.4203 36.4367 31.1885C35.8395 33.1271 34.5665 34.7872 32.8491 35.8668C31.1316 36.9464 29.0839 37.3739 27.0779 37.0716C25.072 36.7693 23.2412 35.7572 21.9182 34.2194C20.5953 32.6816 19.8681 30.7201 19.8687 28.6916V28.688ZM28.3192 0.368881C22.7182 0.368881 17.2429 2.02977 12.5859 5.14152C7.92881 8.25327 4.29908 12.6761 2.15567 17.8508C0.0122549 23.0254 -0.548559 28.7195 0.544142 34.2128C1.63684 39.7062 4.33398 44.7522 8.29449 48.7127C12.255 52.6732 17.301 55.3704 22.7944 56.4631C28.2878 57.5558 33.9818 56.995 39.1564 54.8515C44.3311 52.7081 48.7539 49.0784 51.8657 44.4213C54.9774 39.7643 56.6383 34.2891 56.6383 28.688C56.6383 21.1773 53.6547 13.9742 48.3438 8.66337C43.033 3.3525 35.8299 0.368881 28.3192 0.368881ZM28.3192 37.181C26.6384 37.181 24.9954 36.6825 23.5981 35.7486C22.2007 34.8146 21.1117 33.4873 20.4688 31.9343C19.8259 30.3814 19.6581 28.6727 19.9865 27.0243C20.3149 25.376 21.1248 23.8621 22.3138 22.6741C23.5027 21.4861 25.0173 20.6775 26.6659 20.3504C28.3146 20.0234 30.0231 20.1927 31.5755 20.8368C33.1279 21.481 34.4544 22.5711 35.3872 23.9693C36.3199 25.3674 36.817 27.0108 36.8156 28.6916C36.8166 29.8075 36.5974 30.9126 36.1707 31.9436C35.744 32.9747 35.1181 33.9114 34.3289 34.7003C33.5397 35.4892 32.6027 36.1147 31.5715 36.5409C30.5402 36.9672 29.435 37.1824 28.3192 37.181Z" fill="url(#paint0_linear_30_45)"/>
<defs>
<linearGradient id="paint0_linear_30_45" x1="79.6764" y1="2.35569" x2="60.9575" y2="71.3866" gradientUnits="userSpaceOnUse">
<stop stop-color="#29A49F"/>
<stop offset="1" stop-color="#6017DC"/>
</linearGradient>
</defs>
</svg>
