<svg width="85" height="86" viewBox="0 0 85 86" fill="none" xmlns="http://www.w3.org/2000/svg">
<path d="M85 27.9992V65.2697C85 66.6808 84.6956 67.9536 84.0869 69.0881C83.4782 70.2225 82.6619 71.1909 81.6382 71.9933C80.6144 72.7958 79.48 73.4322 78.2349 73.9025C76.9897 74.3729 75.7031 74.5943 74.375 74.5666C73.0745 74.5666 71.7879 74.3452 70.5151 73.9025C69.2423 73.4598 68.1079 72.8373 67.1118 72.0349C66.1157 71.2324 65.3133 70.2502 64.7046 69.0881C64.0959 67.926 63.7777 66.6532 63.75 65.2697C63.75 63.8586 64.0544 62.5858 64.6631 61.4514C65.2718 60.3169 66.0881 59.3347 67.1118 58.5046C68.1356 57.6745 69.27 57.0519 70.5151 56.6369C71.7603 56.2219 73.0469 56.0005 74.375 55.9728C76.2012 55.9728 77.972 56.4017 79.6875 57.2595V34.8058L53.125 41.4465V70.5822C53.125 71.9933 52.8206 73.2661 52.2119 74.4006C51.6032 75.535 50.7869 76.5034 49.7632 77.3058C48.7394 78.1083 47.605 78.7447 46.3599 79.215C45.1147 79.6854 43.8281 79.9068 42.5 79.8791C41.1995 79.8791 39.9129 79.6577 38.6401 79.215C37.3674 78.7723 36.2329 78.1498 35.2368 77.3474C34.2407 76.5449 33.4383 75.5627 32.8296 74.4006C32.2209 73.2385 31.9027 71.9657 31.875 70.5822C31.875 69.1711 32.1794 67.8983 32.7881 66.7639C33.3968 65.6294 34.2131 64.6472 35.2368 63.8171C36.2606 62.987 37.395 62.3644 38.6401 61.9494C39.8853 61.5344 41.1719 61.313 42.5 61.2853C44.3262 61.2853 46.097 61.7142 47.8125 62.572V37.2961L85 27.9992ZM42.5 74.5666C43.0534 74.5666 43.6344 74.4836 44.2432 74.3176C44.8519 74.1516 45.4329 73.9025 45.9863 73.5705C46.5397 73.2385 46.9686 72.8234 47.2729 72.3254C47.5773 71.8273 47.7572 71.2463 47.8125 70.5822C47.8125 69.9182 47.6465 69.3371 47.3145 68.8391C46.9824 68.341 46.5397 67.926 45.9863 67.5939C45.4329 67.2619 44.8657 67.0129 44.2847 66.8469C43.7036 66.6808 43.1087 66.5978 42.5 66.5978C41.9466 66.5978 41.3656 66.6808 40.7568 66.8469C40.1481 67.0129 39.5671 67.2619 39.0137 67.5939C38.4603 67.926 38.0314 68.341 37.7271 68.8391C37.4227 69.3371 37.2428 69.9182 37.1875 70.5822C37.1875 71.2463 37.3535 71.8273 37.6855 72.3254C38.0176 72.8234 38.4603 73.2385 39.0137 73.5705C39.5671 73.9025 40.1343 74.1516 40.7153 74.3176C41.2964 74.4836 41.8913 74.5666 42.5 74.5666ZM74.375 69.2541C74.9284 69.2541 75.5094 69.1711 76.1182 69.0051C76.7269 68.8391 77.3079 68.59 77.8613 68.258C78.4147 67.926 78.8436 67.5109 79.1479 67.0129C79.4523 66.5148 79.6322 65.9338 79.6875 65.2697C79.6875 64.6057 79.5215 64.0246 79.1895 63.5266C78.8574 63.0285 78.4147 62.6135 77.8613 62.2814C77.3079 61.9494 76.7407 61.7004 76.1597 61.5344C75.5786 61.3683 74.9837 61.2853 74.375 61.2853C73.8216 61.2853 73.2406 61.3683 72.6318 61.5344C72.0231 61.7004 71.4421 61.9494 70.8887 62.2814C70.3353 62.6135 69.9064 63.0285 69.6021 63.5266C69.2977 64.0246 69.1178 64.6057 69.0625 65.2697C69.0625 65.9338 69.2285 66.5148 69.5605 67.0129C69.8926 67.5109 70.3353 67.926 70.8887 68.258C71.4421 68.59 72.0093 68.8391 72.5903 69.0051C73.1714 69.1711 73.7663 69.2541 74.375 69.2541ZM15.9375 26.7541H10.625V21.4416H15.9375V26.7541ZM10.625 32.0666H15.9375V37.3791H10.625V32.0666ZM47.8125 21.4416H53.125V26.7541H47.8125V21.4416ZM42.5 53.3166H0V5.50409H63.75V26.7541L58.4375 28.0822V10.8166H53.125V16.1291H47.8125V10.8166H15.9375V16.1291H10.625V10.8166H5.3125V48.0041H10.625V42.6916H15.9375V48.0041H42.5V53.3166Z" fill="url(#paint0_linear_30_52)"/>
<defs>
<linearGradient id="paint0_linear_30_52" x1="79.6764" y1="8.11275" x2="48.9305" y2="94.4678" gradientUnits="userSpaceOnUse">
<stop stop-color="#29A49F"/>
<stop offset="1" stop-color="#6017DC"/>
</linearGradient>
</defs>
</svg>
